<svg width="142" height="48" viewBox="0 0 142 48" fill="none" xmlns="http://www.w3.org/2000/svg">
<path d="M34.4578 32.8L30.6818 44H29.4338L26.1538 34.448L22.8578 44H21.6258L17.8498 32.8H19.0658L22.2978 42.432L25.6418 32.8H26.7458L30.0418 42.48L33.3218 32.8H34.4578ZM44.5487 42.976V44H36.6287V32.8H44.3087V33.824H37.8127V37.808H43.6047V38.816H37.8127V42.976H44.5487ZM54.3878 38.224C55.1238 38.384 55.6892 38.704 56.0838 39.184C56.4892 39.6533 56.6918 40.2613 56.6918 41.008C56.6918 41.968 56.3345 42.7093 55.6198 43.232C54.9158 43.744 53.8705 44 52.4838 44H47.3318V32.8H52.1638C53.4118 32.8 54.3772 33.0507 55.0598 33.552C55.7532 34.0533 56.0998 34.7627 56.0998 35.68C56.0998 36.2987 55.9452 36.8267 55.6358 37.264C55.3372 37.6907 54.9212 38.0107 54.3878 38.224ZM48.5158 33.776V37.84H52.0838C52.9905 37.84 53.6892 37.6693 54.1798 37.328C54.6705 36.976 54.9158 36.4693 54.9158 35.808C54.9158 35.1467 54.6705 34.6453 54.1798 34.304C53.6892 33.952 52.9905 33.776 52.0838 33.776H48.5158ZM52.4678 43.024C53.4705 43.024 54.2278 42.8533 54.7398 42.512C55.2518 42.1707 55.5078 41.6373 55.5078 40.912C55.5078 39.5147 54.4945 38.816 52.4678 38.816H48.5158V43.024H52.4678ZM63.5818 32.8H68.1418C69.3258 32.8 70.3712 33.04 71.2778 33.52C72.1845 33.9893 72.8885 34.6507 73.3898 35.504C73.8912 36.3467 74.1418 37.312 74.1418 38.4C74.1418 39.488 73.8912 40.4587 73.3898 41.312C72.8885 42.1547 72.1845 42.816 71.2778 43.296C70.3712 43.7653 69.3258 44 68.1418 44H63.5818V32.8ZM68.0778 42.976C69.0592 42.976 69.9178 42.784 70.6538 42.4C71.3898 42.0053 71.9605 41.4667 72.3658 40.784C72.7712 40.0907 72.9738 39.296 72.9738 38.4C72.9738 37.504 72.7712 36.7147 72.3658 36.032C71.9605 35.3387 71.3898 34.8 70.6538 34.416C69.9178 34.0213 69.0592 33.824 68.0778 33.824H64.7658V42.976H68.0778ZM84.7206 42.976V44H76.8006V32.8H84.4806V33.824H77.9846V37.808H83.7766V38.816H77.9846V42.976H84.7206ZM90.5917 44.096C89.7597 44.096 88.9597 43.9627 88.1917 43.696C87.4344 43.4293 86.8477 43.0773 86.4317 42.64L86.8957 41.728C87.301 42.1333 87.8397 42.464 88.5117 42.72C89.1837 42.9653 89.877 43.088 90.5917 43.088C91.5944 43.088 92.3464 42.9067 92.8477 42.544C93.349 42.1707 93.5997 41.6907 93.5997 41.104C93.5997 40.656 93.461 40.2987 93.1837 40.032C92.917 39.7653 92.5864 39.5627 92.1917 39.424C91.797 39.2747 91.2477 39.1147 90.5437 38.944C89.701 38.7307 89.029 38.528 88.5277 38.336C88.0264 38.1333 87.5944 37.8293 87.2317 37.424C86.8797 37.0187 86.7037 36.4693 86.7037 35.776C86.7037 35.2107 86.853 34.6987 87.1517 34.24C87.4504 33.7707 87.909 33.3973 88.5277 33.12C89.1464 32.8427 89.9144 32.704 90.8317 32.704C91.4717 32.704 92.0957 32.7947 92.7037 32.976C93.3224 33.1467 93.8557 33.3867 94.3037 33.696L93.9037 34.64C93.4344 34.3307 92.933 34.1013 92.3997 33.952C91.8664 33.792 91.3437 33.712 90.8317 33.712C89.8504 33.712 89.109 33.904 88.6077 34.288C88.117 34.6613 87.8717 35.1467 87.8717 35.744C87.8717 36.192 88.005 36.5547 88.2717 36.832C88.549 37.0987 88.8904 37.3067 89.2957 37.456C89.7117 37.5947 90.2664 37.7493 90.9597 37.92C91.781 38.1227 92.4424 38.3253 92.9437 38.528C93.4557 38.72 93.8877 39.0187 94.2397 39.424C94.5917 39.8187 94.7677 40.3573 94.7677 41.04C94.7677 41.6053 94.613 42.1227 94.3037 42.592C94.005 43.0507 93.541 43.4187 92.9117 43.696C92.2824 43.9627 91.509 44.096 90.5917 44.096ZM97.3474 32.8H98.5314V44H97.3474V32.8ZM110.064 38.4H111.2V42.672C110.677 43.1307 110.058 43.4827 109.344 43.728C108.629 43.9733 107.877 44.096 107.088 44.096C105.968 44.096 104.96 43.8507 104.064 43.36C103.168 42.8693 102.464 42.192 101.952 41.328C101.44 40.4533 101.184 39.4773 101.184 38.4C101.184 37.3227 101.44 36.352 101.952 35.488C102.464 34.6133 103.168 33.9307 104.064 33.44C104.96 32.9493 105.973 32.704 107.104 32.704C107.957 32.704 108.741 32.8427 109.456 33.12C110.17 33.3867 110.773 33.7867 111.264 34.32L110.528 35.072C109.642 34.1973 108.517 33.76 107.152 33.76C106.245 33.76 105.424 33.9627 104.688 34.368C103.962 34.7627 103.392 35.3173 102.976 36.032C102.56 36.736 102.352 37.5253 102.352 38.4C102.352 39.2747 102.56 40.064 102.976 40.768C103.392 41.472 103.962 42.0267 104.688 42.432C105.413 42.8373 106.229 43.04 107.136 43.04C108.288 43.04 109.264 42.752 110.064 42.176V38.4ZM123.911 32.8V44H122.935L115.735 34.912V44H114.551V32.8H115.527L122.743 41.888V32.8H123.911Z" fill="#222222"/>
<path d="M14.9039 14.6H16.6079V21.008C15.8239 21.696 14.8959 22.224 13.8239 22.592C12.7519 22.96 11.6239 23.144 10.4399 23.144C8.75994 23.144 7.24794 22.776 5.90394 22.04C4.55994 21.304 3.50394 20.288 2.73594 18.992C1.96794 17.68 1.58394 16.216 1.58394 14.6C1.58394 12.984 1.96794 11.528 2.73594 10.232C3.50394 8.92 4.55994 7.896 5.90394 7.16C7.24794 6.424 8.76794 6.056 10.4639 6.056C11.7439 6.056 12.9199 6.264 13.9919 6.68C15.0639 7.08 15.9679 7.68 16.7039 8.48L15.5999 9.608C14.2719 8.296 12.5839 7.64 10.5359 7.64C9.17594 7.64 7.94394 7.944 6.83994 8.552C5.75194 9.144 4.89594 9.976 4.27194 11.048C3.64794 12.104 3.33594 13.288 3.33594 14.6C3.33594 15.912 3.64794 17.096 4.27194 18.152C4.89594 19.208 5.75194 20.04 6.83994 20.648C7.92794 21.256 9.15194 21.56 10.5119 21.56C12.2399 21.56 13.7039 21.128 14.9039 20.264V14.6ZM33.5144 21.464V23H21.6344V6.2H33.1544V7.736H23.4104V13.712H32.0984V15.224H23.4104V21.464H33.5144ZM55.1371 6.2V23H53.4331V9.56L46.8331 20.864H45.9931L39.3931 9.632V23H37.6891V6.2H39.1531L46.4491 18.656L53.6731 6.2H55.1371ZM65.243 23.144C63.995 23.144 62.795 22.944 61.643 22.544C60.507 22.144 59.627 21.616 59.003 20.96L59.699 19.592C60.307 20.2 61.115 20.696 62.123 21.08C63.131 21.448 64.171 21.632 65.243 21.632C66.747 21.632 67.875 21.36 68.627 20.816C69.379 20.256 69.755 19.536 69.755 18.656C69.755 17.984 69.547 17.448 69.131 17.048C68.731 16.648 68.235 16.344 67.643 16.136C67.051 15.912 66.227 15.672 65.171 15.416C63.907 15.096 62.899 14.792 62.147 14.504C61.395 14.2 60.747 13.744 60.203 13.136C59.675 12.528 59.411 11.704 59.411 10.664C59.411 9.816 59.635 9.048 60.083 8.36C60.531 7.656 61.219 7.096 62.147 6.68C63.075 6.264 64.227 6.056 65.603 6.056C66.563 6.056 67.499 6.192 68.411 6.464C69.339 6.72 70.139 7.08 70.811 7.544L70.211 8.96C69.507 8.496 68.755 8.152 67.955 7.928C67.155 7.688 66.371 7.568 65.603 7.568C64.131 7.568 63.019 7.856 62.267 8.432C61.531 8.992 61.163 9.72 61.163 10.616C61.163 11.288 61.363 11.832 61.763 12.248C62.179 12.648 62.691 12.96 63.299 13.184C63.923 13.392 64.755 13.624 65.795 13.88C67.027 14.184 68.019 14.488 68.771 14.792C69.539 15.08 70.187 15.528 70.715 16.136C71.243 16.728 71.507 17.536 71.507 18.56C71.507 19.408 71.275 20.184 70.811 20.888C70.363 21.576 69.667 22.128 68.723 22.544C67.779 22.944 66.619 23.144 65.243 23.144ZM78.4062 7.736H72.5023V6.2H86.0863V7.736H80.1823V23H78.4062V7.736ZM96.0331 23.144C94.3691 23.144 92.8571 22.776 91.4971 22.04C90.1531 21.288 89.0971 20.264 88.3291 18.968C87.5771 17.672 87.2011 16.216 87.2011 14.6C87.2011 12.984 87.5771 11.528 88.3291 10.232C89.0971 8.936 90.1531 7.92 91.4971 7.184C92.8571 6.432 94.3691 6.056 96.0331 6.056C97.6971 6.056 99.1931 6.424 100.521 7.16C101.865 7.896 102.921 8.92 103.689 10.232C104.457 11.528 104.841 12.984 104.841 14.6C104.841 16.216 104.457 17.68 103.689 18.992C102.921 20.288 101.865 21.304 100.521 22.04C99.1931 22.776 97.6971 23.144 96.0331 23.144ZM96.0331 21.56C97.3611 21.56 98.5611 21.264 99.6331 20.672C100.705 20.064 101.545 19.232 102.153 18.176C102.761 17.104 103.065 15.912 103.065 14.6C103.065 13.288 102.761 12.104 102.153 11.048C101.545 9.976 100.705 9.144 99.6331 8.552C98.5611 7.944 97.3611 7.64 96.0331 7.64C94.7051 7.64 93.4971 7.944 92.4091 8.552C91.3371 9.144 90.4891 9.976 89.8651 11.048C89.2571 12.104 88.9531 13.288 88.9531 14.6C88.9531 15.912 89.2571 17.104 89.8651 18.176C90.4891 19.232 91.3371 20.064 92.4091 20.672C93.4971 21.264 94.7051 21.56 96.0331 21.56ZM122.862 6.2V23H121.398L110.598 9.368V23H108.822V6.2H110.286L121.11 19.832V6.2H122.862ZM140.225 21.464V23H128.345V6.2H139.865V7.736H130.121V13.712H138.809V15.224H130.121V21.464H140.225Z" fill="#222222"/>
</svg>
