<svg width="15" height="15" viewBox="0 0 15 15" fill="none" xmlns="http://www.w3.org/2000/svg">
<g clip-path="url(#clip0)">
<path d="M13.6394 5.625H12.2726V6.98563H10.9119V8.3525H12.2726V9.71313H13.6394V8.3525H15.0001V6.98563H13.6394V5.625Z" fill="#333333"/>
<path d="M4.6875 12.1875C7.3925 12.1875 9.18937 10.2887 9.18937 7.60875C9.18937 7.30187 9.1575 7.065 9.11312 6.82875H4.68813V8.44H7.34875C7.24 9.12437 6.54313 10.4606 4.68813 10.4606C3.09 10.4606 1.785 9.13688 1.785 7.5C1.785 5.86313 3.08938 4.53875 4.68813 4.53875C5.6025 4.53875 6.21 4.92875 6.55562 5.26125L7.82812 4.04C7.00875 3.27313 5.95375 2.8125 4.6875 2.8125C2.0975 2.8125 0 4.91 0 7.5C0 10.09 2.0975 12.1875 4.6875 12.1875Z" fill="#333333"/>
</g>
<defs>
<clipPath id="clip0">
<rect width="15" height="15" fill="white"/>
</clipPath>
</defs>
</svg>
